<svg width="auto" height="20" viewBox="0 0 603 96" fill="none" xmlns="http://www.w3.org/2000/svg" class="text-white"><g clip-path="url(#clip0_3_123)"><g class="sequence-reel"><circle cx="46" cy="46" r="46" fill="black" class="reel-background"></circle><circle cx="46" cy="46" r="6.63063" fill="#ECEDEE" class="reel-center"></circle><g class="reel-dots"><ellipse cx="46" cy="73.3514" rx="8.7027" ry="8.7027" fill="#FFB224"></ellipse><ellipse cx="46" cy="18.6487" rx="8.7027" ry="8.7027" fill="#6E56CF"></ellipse><circle cx="69.6869" cy="59.6757" r="8.7027" transform="rotate(-60 69.6869 59.6757)" fill="#E54D2E"></circle><circle cx="22.313" cy="32.3244" r="8.7027" transform="rotate(-60 22.313 32.3244)" fill="#05A2C2"></circle><circle cx="69.6869" cy="32.3243" r="8.7027" transform="rotate(-120 69.6869 32.3243)" fill="#E93D82"></circle><ellipse cx="22.313" cy="59.6756" rx="8.7027" ry="8.7027" transform="rotate(-120 22.313 59.6756)" fill="#46A758"></ellipse></g></g><g><path d="M444.244 41.7582C444.244 34.372 447.822 30.7944 453.708 30.7944C458.786 30.7944 462.595 34.1412 462.595 41.7582V75.2266H480.716V36.334C480.716 25.1393 473.906 15.7913 459.825 15.7913C452.438 15.7913 446.667 18.5611 442.743 25.0239H442.512L440.204 17.5224H426.123V75.2266H444.244V41.7582Z" fill="currentColor"></path><path d="M394.42 15.676C377.915 15.676 364.642 27.4477 364.642 45.5668V47.5287C364.642 65.9941 378.723 77.0733 395.113 77.0733C408.271 77.0733 420.159 70.495 422.929 57.223H405.962C404.231 61.6086 400.307 63.2243 395.575 63.2243C388.072 63.2243 383.802 57.9155 383.109 50.7602H422.814C422.929 49.6061 423.044 46.7209 423.044 44.4127C423.044 25.0241 409.194 15.676 394.42 15.676ZM405.039 39.2193H383.456C384.379 33.2181 387.841 28.6018 394.882 28.6018C400.999 28.6018 405.039 32.9873 405.039 39.2193Z" fill="currentColor"></path><path d="M326.982 52.376V17.5227H308.861V51.222C308.861 68.4178 318.787 76.958 335.407 76.958C352.028 76.958 362.069 68.5332 362.069 51.222V17.5227H344.525V52.376C344.525 59.8776 340.255 62.532 335.753 62.532C331.367 62.532 326.982 59.8776 326.982 52.376Z" fill="currentColor"></path><path d="M286.592 70.1486H286.823V96.0001H304.944V17.5224H292.017L289.708 24.2161H289.477C285.669 18.7919 279.321 15.7913 271.587 15.7913C255.89 15.7913 244.118 29.294 244.118 45.5666V47.7594C244.118 65.5323 256.698 76.9577 270.202 76.9577C277.358 76.9577 283.36 74.3033 286.592 70.1486ZM263.162 46.1437C263.162 37.6035 266.971 30.6789 275.165 30.6789C283.36 30.6789 287.169 37.7189 287.169 46.4899C287.169 55.0301 283.36 61.9546 275.165 61.9546C266.971 61.9546 263.162 54.9147 263.162 46.1437Z" fill="currentColor"></path><path d="M213.353 15.676C196.848 15.676 183.575 27.4477 183.575 45.5668V47.5287C183.575 65.9941 197.656 77.0733 214.045 77.0733C227.203 77.0733 239.091 70.495 241.861 57.223H224.895C223.163 61.6086 219.239 63.2243 214.507 63.2243C207.005 63.2243 202.734 57.9155 202.042 50.7602H241.746C241.861 49.6061 241.977 46.7209 241.977 44.4127C241.977 25.0241 228.126 15.676 213.353 15.676ZM223.971 39.2193H202.388C203.311 33.2181 206.774 28.6018 213.814 28.6018C219.932 28.6018 223.971 32.9873 223.971 39.2193Z" fill="currentColor"></path><path d="M133.9 33.9125V34.8358C133.9 38.8751 135.631 43.0298 138.17 45.5688C143.941 51.3392 152.713 52.0316 158.6 53.4165C163.447 54.5706 164.832 56.8788 164.832 59.5332C164.832 62.9954 162.062 64.7266 157.907 64.7266C152.944 64.7266 149.828 61.9568 149.597 56.4171H133.207V57.6866C133.9 71.7665 144.634 76.9598 157.907 76.9598C169.68 76.9598 182.607 71.5357 182.607 57.9175V56.7634C182.607 52.7241 181.222 48.8002 178.798 46.1458C172.796 40.1446 164.486 39.3367 157.099 37.9518C153.983 37.3748 151.905 35.759 151.905 32.7584C151.905 30.104 153.983 28.0267 157.907 28.0267C162.293 28.0267 164.717 30.3348 164.717 34.1433H181.106V32.8738C181.106 20.756 169.911 15.678 157.561 15.678C146.596 15.678 133.9 20.4097 133.9 33.9125Z" fill="currentColor"></path><path d="M513.828 30.1021C519.83 30.1021 523.985 33.6797 525.14 40.1426H541.645V38.6423C540.375 23.87 527.679 15.676 513.02 15.676C496.4 15.676 482.896 27.7939 482.896 45.336V47.5287C482.896 65.7633 496.746 77.0733 513.136 77.0733C527.102 77.0733 540.029 68.8793 541.645 54.107V52.6067H525.14C523.639 59.3004 520.177 62.6472 513.828 62.6472C505.287 62.6472 501.248 55.7227 501.248 46.3747C501.248 37.142 505.172 30.1021 513.828 30.1021Z" fill="currentColor"></path><path d="M573.444 15.676C556.939 15.676 543.666 27.4477 543.666 45.5668V47.5287C543.666 65.9941 557.747 77.0733 574.137 77.0733C587.294 77.0733 599.183 70.495 601.953 57.223H584.986C583.255 61.6086 579.331 63.2243 574.598 63.2243C567.096 63.2243 562.826 57.9155 562.133 50.7602H601.837C601.953 49.6061 602.068 46.7209 602.068 44.4127C602.068 25.0241 588.218 15.676 573.444 15.676ZM584.063 39.2193H562.479C563.403 33.2181 566.865 28.6018 573.906 28.6018C580.023 28.6018 584.063 32.9873 584.063 39.2193Z" fill="currentColor"></path></g></g><defs><clipPath id="clip0_3_123"><rect width="603" height="96.0001" fill="white"></rect></clipPath></defs></svg>