<svg width="536" height="68" viewBox="0 0 536 68" fill="none" xmlns="http://www.w3.org/2000/svg">
<path d="M171.522 17.98C168.982 16.33 165.652 15.51 161.532 15.51C158.612 15.51 156.102 15.94 154.012 16.79C151.922 17.65 150.162 18.76 148.732 20.12C147.302 21.49 146.142 23.06 145.262 24.83H144.792C144.792 24.83 144.752 24.73 144.742 24.69C143.572 21.87 141.732 19.63 139.222 17.98C136.712 16.33 133.402 15.51 129.272 15.51C126.542 15.51 124.162 15.91 122.132 16.7C120.102 17.49 118.392 18.59 116.992 19.98C115.592 21.38 114.452 22.99 113.562 24.83H112.992V16.45H99.7617V64.33H113.942V36.63C113.942 33.27 114.692 30.95 116.182 29.68C117.672 28.41 120.032 27.78 123.272 27.78C126.702 27.78 129.042 28.46 130.312 29.83C131.582 31.2 132.212 33.53 132.212 36.83V64.34H146.492V36.83C146.492 33.34 147.222 30.96 148.682 29.69C150.142 28.42 152.492 27.79 155.722 27.79C159.152 27.79 161.492 28.47 162.762 29.84C164.032 31.21 164.662 33.54 164.662 36.84V64.35H178.942V33.99C178.942 30.63 178.342 27.53 177.132 24.71C175.922 21.89 174.052 19.65 171.512 18L171.522 17.98Z" fill="black"/>
<path d="M217.61 17.94C214.41 16.32 210.46 15.51 205.76 15.51C201.06 15.51 197.34 16.29 194.01 17.84C190.68 19.4 188.08 21.6 186.21 24.45C184.34 27.31 183.4 30.64 183.4 34.44V35.49H197.01V34.44C197.01 32.03 197.64 30.35 198.91 29.4C200.18 28.45 202.24 27.97 205.1 27.97C207.96 27.97 210.11 28.38 211.57 29.21C213.03 30.04 213.76 31.84 213.76 34.64V36.21L197.39 38.64C194.09 39.15 191.31 39.99 189.06 41.16C186.81 42.33 185.09 43.84 183.92 45.68C182.75 47.52 182.16 49.68 182.16 52.15C182.16 56.47 183.6 59.73 186.49 61.95C189.38 64.17 192.95 65.28 197.2 65.28C200.18 65.28 202.72 64.9 204.81 64.14C206.9 63.38 208.66 62.43 210.09 61.28C211.52 60.14 212.64 59 213.47 57.85H214.04V64.32H227.27V35.96C227.27 31.65 226.46 27.97 224.84 24.92C223.22 21.87 220.81 19.54 217.61 17.92V17.94ZM212.04 51.06C210.9 52.36 209.42 53.25 207.61 53.73C205.8 54.21 203.91 54.44 201.95 54.44C199.86 54.44 198.3 54.19 197.29 53.68C196.27 53.17 195.77 52.28 195.77 51.01C195.77 50 196.12 49.23 196.82 48.73C197.52 48.22 198.6 47.84 200.06 47.59L213.76 45.45C213.76 47.9 213.18 49.77 212.05 51.06H212.04Z" fill="black"/>
<path d="M246.339 16.4601H232.059V64.3401H246.339V16.4601Z" fill="black"/>
<path d="M246.289 11.0301V0.560059H232.109L232.059 11.0301H246.289Z" fill="black"/>
<path d="M291.208 17.98C288.608 16.33 285.208 15.51 281.028 15.51C278.238 15.51 275.798 15.91 273.698 16.7C271.608 17.49 269.848 18.59 268.418 19.98C266.988 21.38 265.828 22.99 264.948 24.83H264.378V16.45H251.148V64.33H265.328V37.2C265.328 34.79 265.678 32.9 266.378 31.54C267.078 30.18 268.138 29.21 269.568 28.64C270.998 28.07 272.848 27.78 275.138 27.78C278.758 27.78 281.228 28.46 282.558 29.83C283.888 31.2 284.558 33.53 284.558 36.83V64.34H298.838V33.98C298.838 30.62 298.218 27.52 296.978 24.7C295.738 21.88 293.818 19.64 291.218 17.99L291.208 17.98Z" fill="black"/>
<path d="M321.14 5.32007H309.91L308.12 12.7101C307.59 14.9101 305.62 16.4501 303.36 16.4501H299.25V28.2501H306.86V48.6201C306.86 54.2701 308.38 58.33 311.43 60.8C314.48 63.2701 319.11 64.5101 325.33 64.5101C327.04 64.5101 328.74 64.41 330.42 64.22C332.1 64.03 333.51 63.81 334.66 63.55V51.6501H328.76C325.71 51.6501 323.68 51.4001 322.67 50.8901C321.65 50.3801 321.15 49.0801 321.15 46.9901V28.2401H334.67V16.4401H321.15V5.30005L321.14 5.32007Z" fill="black"/>
<path d="M372.71 18.55C369.12 16.52 364.76 15.5 359.62 15.5C354.48 15.5 350.07 16.52 346.39 18.55C342.71 20.58 339.9 23.47 337.97 27.21C336.03 30.95 335.07 35.36 335.07 40.44C335.07 45.52 336.04 49.83 337.97 53.57C339.9 57.31 342.71 60.2 346.39 62.23C350.07 64.26 354.48 65.28 359.62 65.28C364.76 65.28 369.12 64.27 372.71 62.23C376.29 60.2 379.05 57.31 380.99 53.57C382.92 49.83 383.89 45.45 383.89 40.44C383.89 35.43 382.92 30.95 380.99 27.21C379.05 23.47 376.29 20.58 372.71 18.55ZM367.71 50.06C366.19 51.84 363.49 52.73 359.62 52.73C355.75 52.73 353.04 51.84 351.48 50.06C349.92 48.28 349.15 45.08 349.15 40.45C349.15 35.82 349.93 32.52 351.48 30.74C353.03 28.96 355.75 28.07 359.62 28.07C363.49 28.07 366.19 28.96 367.71 30.74C369.23 32.52 369.99 35.75 369.99 40.45C369.99 45.15 369.23 48.29 367.71 50.06Z" fill="black"/>
<path d="M419.971 43.59C419.971 46 419.641 47.8899 418.971 49.2499C418.301 50.6199 417.241 51.58 415.781 52.15C414.321 52.72 412.451 53.0099 410.161 53.0099C406.611 53.0099 404.151 52.34 402.781 51.0099C401.411 49.6799 400.731 47.3299 400.731 43.9699V16.46H386.551V46.8199C386.551 50.2499 387.151 53.36 388.361 56.15C389.561 58.94 391.501 61.1599 394.171 62.8099C396.841 64.4599 400.231 65.28 404.351 65.28C407.141 65.28 409.571 64.88 411.631 64.09C413.691 63.3 415.451 62.1999 416.911 60.8099C418.371 59.4099 419.541 57.8 420.431 55.96H420.911V64.34H434.141V16.46H419.961V43.59H419.971Z" fill="black"/>
<path d="M473.752 17.94C470.422 16.32 466.632 15.51 462.382 15.51C457.052 15.51 452.512 16.53 448.772 18.56C445.022 20.59 442.192 23.48 440.252 27.22C438.312 30.96 437.352 35.41 437.352 40.55C437.352 45.69 438.272 49.93 440.112 53.64C441.952 57.35 444.682 60.22 448.302 62.25C451.922 64.28 456.362 65.3 461.622 65.3C466.062 65.3 470.002 64.49 473.422 62.87C476.852 61.25 479.542 58.97 481.512 56.02C483.482 53.07 484.462 49.63 484.462 45.69V44.55H470.182V45.31C470.182 48.04 469.432 49.93 467.942 50.97C466.452 52.02 464.212 52.54 461.232 52.54C457.802 52.54 455.312 51.64 453.762 49.83C452.202 48.02 451.432 44.9 451.432 40.45C451.432 36 452.212 32.87 453.762 31.03C455.312 29.19 457.812 28.27 461.232 28.27C464.212 28.27 466.452 28.79 467.942 29.84C469.432 30.89 470.182 32.78 470.182 35.5V36.26H484.462V35.12C484.462 31.12 483.512 27.66 481.602 24.75C479.702 21.83 477.082 19.56 473.752 17.94Z" fill="black"/>
<path d="M533.608 24.6901C532.398 21.8701 530.518 19.63 527.948 17.98C525.378 16.33 522.028 15.5101 517.908 15.5101C515.368 15.5101 513.098 15.8901 511.098 16.6501C509.098 17.4101 507.388 18.4301 505.958 19.7001C504.528 20.9701 503.368 22.3701 502.488 23.8901H501.918V0.570068H487.738V64.3401H501.918V37.3101C501.918 33.6901 502.708 31.2001 504.298 29.8401C505.888 28.4801 508.358 27.79 511.718 27.79C515.338 27.79 517.808 28.4701 519.138 29.8401C520.468 31.2101 521.138 33.5401 521.138 36.8401V64.35H535.418V33.9901C535.418 30.6301 534.818 27.5301 533.608 24.7101V24.6901Z" fill="black"/>
<path d="M85.5703 67.18H72.0003L67.1803 55.4099C66.1303 52.8499 62.5103 52.8499 61.4603 55.4099L56.6403 67.18H43.0703L49.8503 50.62C55.1503 37.67 73.4903 37.67 78.7903 50.62L85.5703 67.18Z" fill="#FF6500"/>
<path d="M43.0801 67.18H29.5101L24.6901 55.4099C23.6401 52.8499 20.0201 52.8499 18.9701 55.4099L14.1501 67.18H0.580078L7.36008 50.62C12.6601 37.67 31.0001 37.67 36.3001 50.62L43.0801 67.18Z" fill="#FF6500"/>
<path d="M49.8703 17.4699L45.9403 27.07C44.8903 29.63 41.2703 29.63 40.2203 27.07L36.2903 17.4699C30.9903 4.51995 12.6503 4.51995 7.35031 17.4699L0.570312 34.03H14.1403L18.9703 22.24C20.0203 19.68 23.6403 19.68 24.6903 22.24L28.6203 31.84C33.9203 44.79 52.2603 44.79 57.5603 31.84L61.4803 22.27C62.5303 19.71 66.1503 19.71 67.2003 22.27L72.0203 34.04H85.5803L78.8103 17.49C73.5103 4.53997 55.1703 4.53997 49.8703 17.49V17.4699Z" fill="#FF6500"/>
</svg>
